PathFileType	3	(X/Y/Z)	D:\minhoCalibration\240510\subject1_KPNP\preferred\preferred12.trc
DataRate	CameraRate	NumFrames	NumMarkers	Units	OrigDataRate	OrigDataStartFrame	OrigNumFrames
200.0	200.0	27	10	mm	200.0	328	280	
Frame#	Time	Left_Ankle_Outer1			Left_Ankle_Inner1			Left_Knee_Outer1			Left_Knee_Inner1			Left_Wrist1			Right_Wrist1			Right_Knee_Inner1			Right_Knee_Outer1			Right_Ankle_Inner1			Right_Ankle_Outer1			
		X1	Y1	Z1	X2	Y2	Z2	X3	Y3	Z3	X4	Y4	Z4	X5	Y5	Z5	X6	Y6	Z6	X7	Y7	Z7	X8	Y8	Z8	X9	Y9	Z9	X10	Y10	Z10	
328	1.63	-491.56693	121.79262	-576.21198	-538.61755	126.0085	-541.88116	-435.17462	561.67413	-440.90796	-545.92462	523.31097	-451.86731	-462.30246	954.3692	-638.93213	-679.02979	971.08429	-917.48523	-679.73425	495.21661	-909.96814	-708.98657	538.88867	-1009.1583	-590.42651	105.64786	-1097.0569	-662.76373	113.04422	-1180.2799
329	1.635	-494.77487	121.68349	-575.44141	-541.4223	125.63081	-540.2912	-434.78076	560.38898	-438.13187	-545.97705	522.70557	-448.58356	-460.03595	952.52411	-637.0271	-678.36145	970.30499	-914.45148	-681.28821	494.90439	-906.52954	-710.13525	538.0415	-1006.4149	-590.35016	105.67075	-1096.4976	-662.77747	113.42612	-1179.6038
330	1.64	-497.70624	121.47668	-574.35455	-543.92456	125.46396	-538.87445	-434.70715	559.07196	-435.59903	-546.02679	522.08606	-445.23447	-457.82281	950.65118	-635.08887	-678.13464	969.28503	-910.28723	-682.30634	493.73386	-903.54132	-711.35144	537.28259	-1003.4734	-590.2572	105.66464	-1095.9188	-662.78778	113.74284	-1178.9901
331	1.645	-500.08975	121.29609	-573.36554	-546.14453	125.15345	-537.76965	-434.29779	557.82629	-432.52408	-546.10278	521.43658	-441.8866	-455.64532	948.7027	-633.06671	-677.67114	968.52747	-906.56354	-683.48462	493.06152	-900.60651	-712.75476	536.50024	-1000.4319	-590.28046	105.75455	-1095.2521	-662.78912	114.2444	-1178.2654
332	1.65	-501.98553	121.12347	-572.45209	-547.91083	124.81125	-536.64899	-434.2384	556.59778	-429.5416	-546.18573	520.7514	-438.55762	-453.53009	946.78271	-631.01562	-677.41608	967.35895	-902.91968	-684.31989	491.51407	-897.46674	-714.27661	535.61505	-997.26282	-590.36615	105.90066	-1094.545	-662.78888	114.51921	-1177.6128
333	1.655	-503.53659	120.82435	-571.46051	-549.16479	124.44038	-535.69153	-434.11258	555.42596	-426.46848	-546.28754	519.98438	-435.34406	-451.47443	944.84814	-628.84302	-677.37488	966.03296	-898.76019	-685.63513	490.67331	-894.38605	-715.9267	534.8327	-993.95007	-590.49512	106.18253	-1093.7391	-662.98737	114.24988	-1176.8146
334	1.66	-504.50314	120.39033	-570.38226	-549.88782	124.07888	-534.87952	-434.09097	554.34711	-423.34338	-546.35187	519.23438	-432.16595	-449.54907	942.96484	-626.60999	-677.1994	964.97595	-894.55865	-686.89349	489.0528	-890.82416	-717.77881	533.98627	-990.51862	-590.67688	106.47992	-1092.8209	-662.8371	115.45219	-1176.3114
335	1.665	-504.28284	120.38586	-570.05902	-550.0202	123.59261	-534.54144	-434.2453	553.17035	-420.27979	-546.29486	518.42279	-429.29449	-447.59814	941.20789	-624.31122	-676.87909	964.12909	-891.2088	-688.42841	487.8244	-887.35944	-719.8681	533.16919	-986.91663	-590.94781	106.93341	-1091.8088	-662.79993	116.04871	-1175.5034
336	1.67	-503.3577	120.26458	-569.70642	-549.29291	123.30195	-534.47278	-433.96622	552.12463	-416.73364	-546.2677	517.62622	-426.31393	-445.73425	939.47772	-621.93134	-676.63263	963.00824	-887.91449	-690.27557	486.55142	-883.69092	-722.12622	532.30957	-983.1272	-591.22882	107.60892	-1090.4458	-662.63196	116.88441	-1174.4635
337	1.675	-501.8201	119.88296	-569.26001	-547.91156	122.88648	-534.9942	-433.96786	551.0777	-413.40118	-546.10254	516.74829	-423.50687	-443.76691	937.96924	-619.34058	-676.55664	962.08447	-883.36591	-692.38818	485.38416	-879.75342	-724.58069	531.62372	-979.28448	-591.68842	108.31828	-1089.1139	-662.77673	117.18475	-1173.381
338	1.68	-499.13254	120.08916	-569.703	-546.05249	122.62457	-536.17151	-433.9617	549.98944	-410.13626	-545.84711	515.84851	-420.79111	-441.70975	936.59467	-616.66718	-676.57672	960.90253	-878.9447	-694.85339	484.30618	-875.55414	-727.28052	531.08087	-975.17267	-592.1626	109.34735	-1087.6505	-662.74103	118.87063	-1172.4045
339	1.685	-496.15497	119.866	-569.52112	-543.4494	122.33753	-537.49121	-434.07242	548.96405	-406.82742	-545.63861	514.96783	-418.29022	-439.60721	935.38116	-613.87695	-676.28369	960.44617	-874.21399	-697.71393	483.28644	-871.04791	-730.15912	530.55292	-970.88379	-592.87836	110.59951	-1086.024	-662.87274	120.34779	-1171.1664
340	1.69	-492.20663	120.13996	-570.06995	-540.48407	122.31222	-539.41821	-434.15546	548.00989	-403.62314	-545.35394	513.97711	-416.10107	-437.34195	934.47522	-610.9989	-676.39008	959.29559	-869.57678	-701.07788	482.41068	-866.08679	-733.34857	530.20819	-966.36212	-593.66498	112.26125	-1084.4728	-663.30359	122.21272	-1169.9136
341	1.695	-487.91733	120.22282	-570.29974	-537.00262	122.21508	-541.10791	-434.31378	547.12067	-400.38727	-545.16882	513.02557	-414.23071	-434.94086	933.78955	-607.99683	-676.28735	958.77386	-864.4541	-704.86584	481.79977	-860.71533	-736.8623	530.11389	-961.50909	-594.58228	114.35552	-1082.7684	-663.83136	124.7455	-1168.4729
342	1.7	-483.37323	120.37272	-570.41296	-533.18378	122.14228	-542.69128	-434.55734	546.33765	-397.28815	-544.91101	512.18109	-412.68066	-432.2988	933.38806	-604.89783	-676.43018	958.42297	-858.38696	-709.15546	481.39716	-854.83423	-740.96344	530.43317	-956.71808	-595.71014	117.07908	-1081.0282	-664.55939	127.12999	-1166.8218
343	1.705	-478.55447	120.44695	-570.35925	-528.93958	122.00721	-544.02759	-434.76151	545.54388	-394.17688	-544.63574	511.27582	-411.51743	-429.56918	933.24072	-601.7876	-676.33362	958.05005	-853.09637	-713.82556	481.31772	-848.27466	-745.15485	530.67249	-950.63708	-596.8902	120.29813	-1079.1038	-665.63647	130.55995	-1165.0116
344	1.71	-473.71619	120.52361	-570.27588	-524.78851	121.94584	-545.48004	-434.86179	544.79956	-391.14526	-544.29694	510.49142	-410.68237	-426.50763	933.37494	-598.63831	-676.55652	957.69958	-846.80316	-718.92853	481.43945	-841.10651	-750.11884	531.34808	-944.46429	-598.4292	123.91405	-1077.0009	-666.9035	135.01704	-1162.9905
345	1.715	-468.88187	120.66566	-570.05859	-520.65552	121.90309	-546.73511	-434.9422	544.02209	-388.20972	-543.83179	509.67239	-410.15009	-423.33347	933.80115	-595.46143	-676.64825	957.54395	-840.58032	-724.48053	482.03845	-833.16071	-755.47913	532.30066	-937.17609	-600.37311	128.21886	-1074.5336	-668.77521	139.69115	-1160.4655
346	1.72	-464.34061	120.65141	-569.8089	-516.53485	121.8112	-547.88727	-434.69547	543.29736	-385.48337	-543.07819	508.91513	-409.86682	-419.99881	934.6084	-592.30243	-676.4104	957.42377	-833.4765	-730.4212	482.81329	-824.46826	-761.31824	533.59314	-929.09998	-602.60693	133.3291	-1071.6394	-671.13806	144.99648	-1157.3724
347	1.725	-460.00201	120.63504	-569.55695	-512.81335	121.6366	-549.00922	-434.30377	542.52026	-382.92456	-542.09082	508.13556	-409.77634	-416.56	935.74756	-589.15662	-676.16412	957.1012	-826.83832	-736.45325	484.06595	-815.19324	-767.65039	535.18652	-920.08734	-605.45422	139.06721	-1068.2875	-674.0379	151.04976	-1153.6985
348	1.73	-456.15762	120.40609	-569.36542	-509.40109	121.48386	-550.10645	-433.47	541.72119	-380.70932	-540.80261	507.41028	-409.83179	-413.02026	937.21014	-585.97083	-676.20752	957.59924	-818.2757	-743.1073	485.68323	-804.58191	-774.59589	537.13507	-910.02924	-608.81409	145.47108	-1064.3181	-677.67633	157.67032	-1149.4073
349	1.735	-453.81494	119.18475	-568.61188	-506.5621	121.31137	-551.17432	-432.36429	540.76843	-378.81073	-539.08777	506.69943	-409.92404	-409.38013	938.89667	-582.64062	-675.88385	958.25476	-812.56824	-749.64966	487.56601	-793.77069	-782.02917	539.349	-898.99731	-612.46661	152.35985	-1059.7802	-682.16132	164.96797	-1144.2241
350	1.74	-450.56418	119.11941	-569.01837	-504.03183	120.88676	-551.71307	-430.81326	539.80469	-377.41687	-537.15289	506.01251	-410.1861	-405.84247	940.85553	-579.23969	-675.77252	959.12415	-806.14722	-756.02289	489.40381	-782.90839	-789.84985	542.02979	-886.70184	-617.55554	159.97054	-1054.1028	-687.44781	172.72014	-1138.1558
351	1.745	-448.59433	118.4602	-568.92969	-502.41745	120.60548	-552.82886	-428.70047	538.83081	-376.42728	-534.78943	505.46985	-410.44067	-402.16583	943.01984	-575.79431	-675.68695	960.39111	-798.39221	-763.49377	493.45212	-769.31732	-797.83228	545.07928	-873.41595	-623.08746	167.87648	-1047.7395	-693.70563	180.87967	-1131.174
352	1.75	-447.20145	117.69125	-568.94165	-501.04337	120.20557	-553.3399	-426.10526	537.87933	-375.89914	-532.10382	504.98117	-410.75934	-398.53259	945.41791	-572.35736	-675.60822	960.92798	-788.61951	-770.33441	496.95844	-755.56775	-805.77551	548.42572	-859.1673	-628.64252	176.51765	-1040.8799	-700.37476	189.59021	-1123.5278
353	1.755	-446.10251	117.18198	-569.06	-500.26257	119.70547	-553.55157	-423.03348	537.01373	-375.90152	-529.11584	504.66269	-411.0723	-394.84811	948.05774	-569.01538	-675.25616	962.1283	-781.32745	-776.86615	500.84631	-741.03888	-813.59137	552.2345	-844.02045	-634.73358	185.52861	-1033.5566	-707.22607	198.93552	-1115.4639
354	1.76	-445.48364	116.54123	-569.08258	-499.09445	119.50533	-554.66284	-419.50699	536.17255	-376.36856	-525.57166	504.72934	-411.40384	-391.07251	950.92523	-565.79199	-673.71893	965.07178	-777.17346	-782.7063	505.11182	-725.68573	-821.05139	556.29138	-828.06525	-640.60565	195.4249	-1026.0865	-714.11414	208.99005	-1106.8024
